<svg xmlns="http://www.w3.org/2000/svg" width="1366" height="768" viewBox="0 0 1366 768"><rect width="100%" height="100%" fill="#DDE"/><path fill="#31343C" d="M297.675 360.365v16.01h-18.44v-16.01h-9.4v40.6h9.4v-16.65h18.44v16.65h9.4v-40.6Zm48.95 25.11c0-10.03-7.07-16.18-16.24-16.18-9.51 0-16.64 6.73-16.64 16.07 0 9.28 7.01 16.06 17.8 16.06 5.63 0 9.98-1.74 12.88-5.04l-4.82-5.22c-2.14 2.03-4.52 3.01-7.83 3.01-4.75 0-8.06-2.37-8.93-6.26h23.61c.06-.75.17-1.74.17-2.44Zm-16.18-9.33c4.06 0 7.02 2.55 7.66 6.49h-15.37c.63-4 3.59-6.49 7.71-6.49Zm33.93-6.85c-4.99 0-10.03 1.34-13.46 3.77l3.25 6.32c2.26-1.79 5.69-2.9 8.99-2.9 4.87 0 7.19 2.27 7.19 6.15h-7.19c-9.51 0-13.4 3.83-13.4 9.34 0 5.39 4.35 9.45 11.66 9.45 4.58 0 7.83-1.5 9.51-4.35v3.89h8.47v-17.81c0-9.45-5.51-13.86-15.02-13.86Zm-.7 26.04c-3.19 0-5.1-1.5-5.1-3.77 0-2.08 1.33-3.65 5.57-3.65h6.2v3.19c-1.04 2.84-3.65 4.23-6.67 4.23Zm23.9 5.63h9.05v-43.04h-9.05Zm37.41-7.89c-.99.76-2.32 1.16-3.65 1.16-2.44 0-3.89-1.45-3.89-4.12v-12.7h7.77v-6.96h-7.77v-7.6h-9.05v7.6h-4.81v6.96h4.81v12.82c0 7.42 4.29 11.19 11.66 11.19 2.78 0 5.51-.63 7.37-1.97Zm26.51-23.78c-4.01 0-7.49 1.28-9.92 3.71v-15.08h-9.05v43.04h9.05v-15.43c0-5.74 3.13-8.41 7.48-8.41 4 0 6.32 2.32 6.32 7.37v16.47h9.05v-17.86c0-9.52-5.57-13.81-12.93-13.81Zm25.63-3.88c3.37 0 5.63-2.21 5.63-5.22 0-2.79-2.26-4.88-5.63-4.88-3.36 0-5.62 2.21-5.62 5.05s2.26 5.05 5.62 5.05Zm-4.52 35.55h9.05v-31.2h-9.05Zm27.37-31.84c0-3.08 1.45-4.53 4.12-4.53 1.39 0 2.67.41 3.66 1.11l2.37-6.56c-1.68-1.16-4.35-1.68-6.9-1.68-7.77 0-12.06 4.58-12.06 11.6v1.39h-4.82v6.96h4.82v23.55h9.05v-23.55h7.77v-6.96h-8.01Zm35.38.64-8.81 21.17-8.76-21.17h-9.34l13.52 31.43-.12.29c-1.22 2.79-2.61 3.89-5.1 3.89-1.8 0-3.72-.76-5.11-1.97l-3.3 6.43c2.03 1.8 5.51 2.85 8.7 2.85 5.62 0 9.91-2.27 12.93-9.81l14.09-33.11Zm29.47 42.45h8.29v-54.29h-8.29Zm34.33-11.25h18.45c13.28 0 22.39-8 22.39-20.3s-9.11-20.3-22.39-20.3h-18.45Zm9.4-7.71v-25.18h8.58c8.07 0 13.34 4.82 13.34 12.59s-5.27 12.59-13.34 12.59Zm60.26-23.49v15.42c0 5.75-3.01 8.41-7.19 8.41-4 0-6.32-2.32-6.32-7.54v-16.29h-9.05v17.63c0 9.63 5.51 14.03 13.34 14.03 3.83 0 7.31-1.45 9.69-4.17v3.71h8.58v-31.2Zm57.42-.47c-4.7 0-8.76 1.92-11.25 5.11-2.2-3.43-5.92-5.11-10.27-5.11-4 0-7.48 1.39-9.8 4.06v-3.59h-8.64v31.2h9.05v-15.66c0-5.57 2.84-8.18 6.84-8.18 3.77 0 5.92 2.32 5.92 7.37v16.47h9.05v-15.66c0-5.57 2.84-8.18 6.9-8.18 3.65 0 5.91 2.32 5.91 7.37v16.47h9.05v-17.86c0-9.52-5.33-13.81-12.76-13.81Zm60.84 0c-4.69 0-8.75 1.92-11.25 5.11-2.2-3.43-5.91-5.11-10.26-5.11-4.01 0-7.49 1.39-9.81 4.06v-3.59h-8.64v31.2h9.05v-15.66c0-5.57 2.84-8.18 6.84-8.18 3.77 0 5.92 2.32 5.92 7.37v16.47h9.05v-15.66c0-5.57 2.84-8.18 6.9-8.18 3.65 0 5.92 2.32 5.92 7.37v16.47h9.04v-17.86c0-9.52-5.33-13.81-12.76-13.81Zm42.58.47-8.82 21.17-8.76-21.17h-9.34l13.52 31.43-.12.29c-1.22 2.79-2.61 3.89-5.1 3.89-1.8 0-3.71-.76-5.11-1.97l-3.3 6.43c2.03 1.8 5.51 2.85 8.7 2.85 5.62 0 9.92-2.27 12.93-9.81l14.1-33.11Zm29.46 31.2h9.4v-40.6h-9.4Zm58.35-31.67c-4.7 0-8.76 1.92-11.25 5.11-2.21-3.43-5.92-5.11-10.27-5.11-4 0-7.48 1.39-9.8 4.06v-3.59h-8.64v31.2h9.04v-15.66c0-5.57 2.85-8.18 6.85-8.18 3.77 0 5.91 2.32 5.91 7.37v16.47h9.05v-15.66c0-5.57 2.84-8.18 6.9-8.18 3.66 0 5.92 2.32 5.92 7.37v16.47h9.05v-17.86c0-9.52-5.34-13.81-12.76-13.81Zm33.46 0c-4.98 0-10.03 1.34-13.45 3.77l3.25 6.32c2.26-1.79 5.68-2.9 8.99-2.9 4.87 0 7.19 2.27 7.19 6.15h-7.19c-9.52 0-13.4 3.83-13.4 9.34 0 5.39 4.35 9.45 11.66 9.45 4.58 0 7.83-1.5 9.51-4.35v3.89h8.47v-17.81c0-9.45-5.51-13.86-15.03-13.86Zm-.69 26.04c-3.19 0-5.11-1.5-5.11-3.77 0-2.08 1.34-3.65 5.57-3.65h6.21v3.19c-1.05 2.84-3.66 4.23-6.67 4.23Zm47.85-25.57v4c-2.38-3.02-5.98-4.47-10.33-4.47-8.64 0-15.6 5.98-15.6 15.08 0 9.11 6.96 15.08 15.6 15.08 4.06 0 7.49-1.27 9.86-3.88v1.33c0 5.63-2.78 8.53-9.16 8.53-4 0-8.35-1.4-11.02-3.54l-3.6 6.49c3.66 2.85 9.4 4.3 15.32 4.3 11.25 0 17.51-5.34 17.51-16.94v-25.98Zm-8.53 22.27c-4.75 0-8.23-3.08-8.23-7.66s3.48-7.65 8.23-7.65c4.76 0 8.18 3.07 8.18 7.65s-3.42 7.66-8.18 7.66Zm56.09-6.56c0-10.03-7.08-16.18-16.24-16.18-9.51 0-16.65 6.73-16.65 16.07 0 9.28 7.02 16.06 17.81 16.06 5.62 0 9.97-1.74 12.87-5.04l-4.81-5.22c-2.15 2.03-4.52 3.01-7.83 3.01-4.76 0-8.06-2.37-8.93-6.26h23.6c.06-.75.18-1.74.18-2.44Zm-16.18-9.33c4.06 0 7.01 2.55 7.65 6.49h-15.37c.64-4 3.6-6.49 7.72-6.49Zm55.68.75 9.16-10.44v-6.09h-28.42v7.54h17.28l-8.35 9.45v6.21h4.29c5.34 0 7.6 1.91 7.6 4.99 0 3.3-2.9 5.22-7.6 5.22-4.23 0-8.52-1.34-11.6-3.66l-3.65 7.2c3.94 2.78 9.8 4.35 15.49 4.35 11.54 0 16.82-6.27 16.82-13.11 0-5.98-3.72-10.5-11.02-11.66Z"/></svg>